<svg xmlns="http://www.w3.org/2000/svg" viewBox="0 0 512 512"><rect width="512" height="512" rx="112" fill="#ffd89e"/><circle cx="404" cy="108" r="44" fill="#ffc93c"/><g stroke="#2d2a4a" stroke-width="14" stroke-linejoin="round" stroke-linecap="round"><path d="M256 74 L436 206 H76 Z" fill="#ff6b6b"/><rect x="108" y="206" width="296" height="238" rx="20" fill="#fff8ef"/><g fill="#8fd3ff" stroke-width="10"><rect x="138" y="232" width="58" height="50" rx="12"/><rect x="227" y="232" width="58" height="50" rx="12"/><rect x="316" y="232" width="58" height="50" rx="12"/><rect x="138" y="304" width="58" height="50" rx="12"/><rect x="227" y="304" width="58" height="50" rx="12"/><rect x="316" y="304" width="58" height="50" rx="12"/><rect x="138" y="376" width="58" height="46" rx="12"/><rect x="316" y="376" width="58" height="46" rx="12"/></g><path d="M227 444 V398 a29 29 0 0 1 58 0 V444" fill="#2fb67c" stroke-width="10"/></g><circle cx="272" cy="420" r="6" fill="#2d2a4a"/></svg>
